<svg width="184" height="18" viewBox="0 0 184 18" xmlns="http://www.w3.org/2000/svg">
    <defs>
        <radialGradient cx="50%" cy="24.54%" fx="50%" fy="24.54%" r="75.46%" id="sj6xt4pc2a">
            <stop stop-color="#7FCDEC" offset="0%"/>
            <stop stop-color="#004386" offset="100%"/>
        </radialGradient>
    </defs>
    <g fill="none" fill-rule="evenodd">
        <path d="M43.923 14.584h-8.655a.763.763 0 0 1-.76-.761V9.287c0-.418.342-.76.76-.76h8.655v-3.36h-9.459a3.297 3.297 0 0 0-3.287 3.288v6.258A3.297 3.297 0 0 0 34.464 18h9.46v-3.416zM12.746 14.584H4.091a.763.763 0 0 1-.76-.761V9.287c0-.418.341-.76.76-.76h8.655v-3.36H3.287A3.297 3.297 0 0 0 0 8.455v6.258A3.297 3.297 0 0 0 3.287 18h9.46v-3.416z" fill="#004095"/>
        <path fill="#004095" d="M1.435 12.918h10.45v-2.87H1.435zM26.51 5.21h-2.856v3.33h2.024c.419 0 .76.343.76.761v8.656h3.36v-9.46A3.297 3.297 0 0 0 26.51 5.21M17.436 5.21h2.857v3.33h-2.024a.763.763 0 0 0-.76.761v8.656h-3.36v-9.46a3.297 3.297 0 0 1 3.287-3.287"/>
        <path fill="#004095" d="M20.297 17.957h3.358V8.539h-3.358zM157.27 10.589V9.152h2.653v1.437h-2.653zm5.28-2.155h2.157v.816h-2.157v-.816zm0 3.271v-1.34h2.157v1.587h2.625V6.376c0-.595-.495-1.065-1.09-1.065h-2.38c-.098 0-.172.024-.222.073-.075.075-.124.15-.124.248 0 .1.05.173.124.248.05.05.124.074.222.074h.845v1.364h-2.157v-.223h-.025c0-.62-.47-1.091-1.066-1.091h-2.405a.329.329 0 0 0-.322.322c0 .174.15.322.347.322h.844v1.388h-2.653v-.941h-.025c0-.62-.47-1.091-1.065-1.091h-2.405a.327.327 0 0 0-.32.322c0 .174.146.322.344.322h.844v4.263a.8.8 0 0 0 .793.794H162.549zM161.88 16.81c-1.562 0-2.826-.719-2.826-1.636 0-.892 1.264-1.635 2.826-1.635 1.56 0 2.827.743 2.827 1.635 0 .917-1.266 1.636-2.827 1.636m0-4.437c-3.073 0-5.551 1.265-5.551 2.801 0 1.563 2.478 2.826 5.551 2.826s5.552-1.263 5.552-2.826c0-1.536-2.479-2.8-5.552-2.8M121.46 6.428v-.002c0-.593-.48-1.072-1.071-1.074h-1.198v4.694h-.898V6.43l-.002-.002v-.002c0-.593-.48-1.072-1.073-1.074h-2.054a.328.328 0 0 0 .003.657l.03-.003h.825v11.697h2.271v-6.551h.898v6.55h2.271V6.43l-.001-.002zM113.97 7.303l.45-1.108h-5.68v8.678h.005v.01c0 .475.384.858.859.858.012 0 .025-.001.037-.003h4.658v-1.107h-2.976V7.303h2.647zM126.15 9.502c0-.907.67-1.64 1.495-1.64.823 0 1.492.733 1.492 1.64 0 .907-.67 1.64-1.492 1.64-.826 0-1.495-.733-1.495-1.64m5.218 0c0-.737-.34-1.41-.898-1.928h1.372l.45-1.114h-3.395V5.26h-3.379v.004a.33.33 0 0 0 .004.662c.01 0 .02-.003.03-.004h.809v.537h-3.395l.452 1.114h1.4c-.559.518-.898 1.191-.898 1.928 0 1.637 1.667 2.967 3.725 2.967 2.056 0 3.723-1.33 3.723-2.967M137.943 8.253H136.4V6.45l-.002-.001v-.002c0-.602-.488-1.09-1.091-1.092l-.001-.003H132.9v.001a.334.334 0 1 0 .034.666h.839v6.834h2.626V9.38h2.282l-.739-1.126zM125.696 14.675h8.072v3.023h2.632V13.54h-11.196zM149.087 7.344v6.996h2.614V6.21H139.72l.46 1.134z"/>
        <path d="M147.989 16.033v-4.03h-3.157v.007a.32.32 0 0 0-.286.195.33.33 0 0 0 .302.461c.011 0 .02 0 .03-.002h.607v3.369h-1.783v-4.03h-3.156v.003a.33.33 0 0 0 .005.66l.03-.003h.618v3.37h-2.424l.462 1.13h13.172l.45-1.13h-4.87zM85.475 6.278c1.751 0 3.172.712 3.172 1.59 0 .88-1.42 1.592-3.172 1.592-1.752 0-3.173-.712-3.173-1.592 0-.878 1.42-1.59 3.173-1.59m0 4.291c3.142 0 5.69-1.209 5.69-2.7 0-1.492-2.548-2.702-5.69-2.702-3.143 0-5.69 1.21-5.69 2.701 0 1.492 2.547 2.701 5.69 2.701M78.441 11.062l.452 1.113h13.171l.452-1.113zM82.43 15.642h7.444v-.003h.498l.018.002a.865.865 0 0 0 .864-.865l-.002-.016v-2.042H79.587l.453 1.113h8.581v.844h-8.295v.002h-.528V16.737c0 .477.385.863.863.863l.017-.001h1.752v-.003h8.822l.452-1.113H82.43v-.84zM99.035 10.094a8.43 8.43 0 0 0 .7-3.06h2.362l.452-1.114H93.67l.401 1.113h2.94c-.009.603-.184 4.77-3.438 7.743l.777.648s2.63-1.583 4.217-4.388c.734.4 1.244 1.344 1.244 1.344.573 1.02.408 2.903.408 2.903h2.7c-.128-1.82-1.26-3.285-1.26-3.285-1.008-1.4-2.284-1.815-2.624-1.904M106.928 6.437v-.003a1.08 1.08 0 0 0-1.079-1.08l-.002-.002H103.47v.001a.33.33 0 0 0 .003.662l.03-.003h.829V17.7h2.598V6.438l-.002-.001zM58.526 15.873h-.92V13.39h4.632l-.46-1.134H52.87V6.051H49.39v.001a.33.33 0 0 0 .004.662c.01 0 .019-.002.029-.003h.83l.005-.001v6.68h4.845v2.483h-5.79l.462 1.13h13.172l.45-1.13h-4.87zM172.216 13.687h2.627v-1.363h5.75v.744h-2.255l-.718 1.115h2.973v.57h2.603V6.376c0-.595-.496-1.09-1.09-1.09h-2.38c-.199 0-.322.148-.322.346 0 .173.148.322.322.322h.867v5.255h-11.376l.496 1.115h2.503v1.363zM174.918 16.588v-1.91h-3.62c-.173 0-.321.15-.321.347 0 .174.148.323.321.323h.968V16.835c0 .47.396.868.866.868h10.139l.47-1.115h-8.823z" fill="#004095"/>
        <path d="M175.017 6.872c1.238 0 2.23.62 2.23 1.412 0 .793-.992 1.438-2.23 1.438-1.24 0-2.23-.645-2.23-1.438 0-.793.99-1.412 2.23-1.412m0 3.965c2.676 0 4.833-1.14 4.833-2.553 0-1.387-2.157-2.528-4.833-2.528-2.677 0-4.859 1.14-4.859 2.528 0 1.413 2.182 2.553 4.859 2.553M66.554 13.687h2.627v-1.363h5.75v.744h-2.255l-.718 1.115h2.973v.57h2.603V6.376c0-.595-.496-1.09-1.09-1.09h-2.38c-.199 0-.322.148-.322.346 0 .173.148.322.322.322h.867v5.255H63.555l.496 1.115h2.503v1.363zM69.256 16.588v-1.91h-3.62c-.173 0-.321.15-.321.347 0 .174.148.323.321.323h.968V16.835c0 .47.396.868.866.868H77.61l.47-1.115h-8.823z" fill="#004095"/>
        <path d="M69.355 6.872c1.238 0 2.23.62 2.23 1.412 0 .793-.992 1.438-2.23 1.438-1.24 0-2.23-.645-2.23-1.438 0-.793.99-1.412 2.23-1.412m0 3.965c2.676 0 4.832-1.14 4.832-2.553 0-1.387-2.156-2.528-4.832-2.528-2.677 0-4.859 1.14-4.859 2.528 0 1.413 2.182 2.553 4.859 2.553" fill="#004095"/>
        <path d="M21.99 0a2.067 2.067 0 1 0 0 4.134 2.067 2.067 0 1 0 0-4.134z" fill="url(#sj6xt4pc2a)"/>
    </g>
</svg>
