<svg width="40" height="40" viewBox="0 0 40 40" xmlns="http://www.w3.org/2000/svg">
    <path d="M28.006 0a11.973 11.973 0 0 0-8.49 3.501L3.506 19.508c-4.675 4.67-4.674 12.303 0 16.975v.004A12 12 0 0 0 11.995 40c3.07 0 6.154-1.182 8.49-3.517l16.01-16.002v-.004c4.671-4.67 4.673-12.304 0-16.976A11.973 11.973 0 0 0 28.006 0zm0 3.974c2.044 0 4.088.786 5.66 2.357a7.969 7.969 0 0 1 0 11.317l-7.505 7.502-11.32-11.316 7.505-7.503a7.982 7.982 0 0 1 5.66-2.357z" fill="#3824B4" fill-rule="nonzero"/>
</svg>
