<svg width="18" height="20" viewBox="0 0 18 20" xmlns="http://www.w3.org/2000/svg">
    <path d="M9.993 0a8 8 0 0 1 8 8c0 1.952-.457 3.055-1.014 3.96l-.178.28-.183.272-.441.642-.094.144-.183.294c-.508.854-.907 1.893-.907 3.648V20h-9v-3h-2a2 2 0 0 1-2-2v-2.979L.567 11.42a.912.912 0 0 1-.416-1.332l1.894-2.97A7.996 7.996 0 0 1 9.993 0zm0 2a5.987 5.987 0 0 0-5.961 5.338L3.98 7.8l-1.453 2.275 1.465.617V15h4v3h5v-.76c0-2.116.503-3.47 1.086-4.497l.187-.314.094-.15.189-.288.583-.854c.514-.782.86-1.535.86-3.137 0-3.308-2.691-6-6-6zM11 12v2H9v-2h2zm-1-8c1.878 0 3 1.525 3 3 0 .592-.347 1.215-.752 1.81L12 9.163l-.328.457c-.328.464-.604.89-.661 1.249L11 11H9c0-.341.245-.805.564-1.308l.108-.169.656-.99c.328-.51.604-1 .661-1.391L11 7l-.012-.13-.027-.134C10.884 6.44 10.659 6 10 6c-.774 0-.976.734-.998.962L9 7H7c0-1.21.954-3 3-3z" fill="#3824B4" fill-rule="nonzero"/>
</svg>
