<svg width="21" height="22" viewBox="0 0 21 22" xmlns="http://www.w3.org/2000/svg">
    <path d="M4.596.251 0 4.116l1.29 1.53L5.884 1.78 4.595.251zm11.41 0-1.287 1.53 4.595 3.865 1.288-1.53L16.006.251zM10.3 2.749a9 9 0 0 0-9 9 8.966 8.966 0 0 0 2.943 6.643l-1.943 1.943 1.414 1.414 2.166-2.166a8.951 8.951 0 0 0 8.84 0l2.166 2.166 1.414-1.414-1.944-1.943a8.966 8.966 0 0 0 2.944-6.643 9 9 0 0 0-9-9zm0 2a7 7 0 1 1 0 14 7 7 0 0 1 0-14zm-1 3v5h4v-2h-2v-3h-2z" fill="#CDCED2" fill-rule="nonzero"/>
</svg>
