<svg width="116" height="48" viewBox="0 0 116 48" xmlns="http://www.w3.org/2000/svg">
    <defs>
        <clipPath id="gl02ocpfea">
            <path d="M375 0v812H0V0h375z"/>
        </clipPath>
        <clipPath id="q3qhbzjb9b">
            <path d="M91.86 0c13.255 0 24 10.745 24 24s-10.745 24-24 24H24C10.745 48 0 37.255 0 24S10.745 0 24 0h67.86zM60 2v44h31.86c12.15 0 22-9.85 22-22 0-12.029-9.654-21.803-21.636-21.997L60 2z"/>
        </clipPath>
    </defs>
    <g clip-path="url(#gl02ocpfea)" transform="translate(-72 -324)">
        <g clip-path="url(#q3qhbzjb9b)" transform="translate(72.07 324)">
            <path fill="#3823B4" d="M0 0h115.86v48H0V0z"/>
        </g>
    </g>
</svg>
