<svg width="241" height="62" viewBox="0 0 241 62" xmlns="http://www.w3.org/2000/svg" xmlns:xlink="http://www.w3.org/1999/xlink">
    <defs>
        <path id="imdn8p26na" d="M0 0h70.22v45.79H0z"/>
        <path id="oe8oqfdj5c" d="M0 0h22.91v26.838H0z"/>
        <path id="3ik7666z5e" d="M0 61.768h240V0H0z"/>
    </defs>
    <g transform="translate(.5 .116)" fill="none" fill-rule="evenodd">
        <g>
            <mask id="rby690bzlb" fill="#fff">
                <use xlink:href="#imdn8p26na"/>
            </mask>
            <path d="M64.333 10.197S55.1 0 35.058 0C15.028 0 0 11.16 0 22.85c0 11.69 14.06 22.94 35.058 22.94 20.132 0 34.987-9.758 35.16-22.94.091-7.202-3.784-10.631-3.784-10.631l-7.288 4.302s2.65 4.17 0 12.662C55.545 40.69 44.382 43.064 44.382 43.064s3.383-2.985 3.51-7.907c.176-6.768-3.86-9.667-3.86-9.667l-1.939.966s3.693 1.578 4.13 7.292c.158 2.038-.086 10.896-11.165 10.896-14.939 0-24.517-11.16-24.517-21.793C10.541 11.604 21.44.964 35.058.964c13.542 0 20.66 9.233 20.66 9.233" fill="#1A2C7C" mask="url(#rby690bzlb)"/>
        </g>
        <path d="M20.824 10.198v28.736l21.269-12.478s-2.284-1.112-4.012-1.408c-1.387-.23-3.396-.323-4.019-.407-.349-.053-1.02-.442-.929-1.26.078-.821.552-1.083.964-1.142.844-.126 2.705.14 3.658.32 1.562.292 3.84 1.232 3.84 1.232s-.005-2.497 1.201-3.72c1.38-1.413 2.661-1.723 3.52-1.82.496-.056.936.244 1.054.648.144.496-.092.789-.324 1.023-.234.232-1.376.38-1.729.56-.352.175-1.295.557-1.7 1.874-.239.756-.143 1.403-.056 1.873.074.418.471 1.262.471 1.262l15.114-8.97s-.662-1.927-1.279-2.985c-.62-1.066-2.15-3.338-2.15-3.338H20.824z" fill="#D7221D"/>
        <path d="M103.838 36.935h-3.796V22.99h-2.16v13.291h-3.765V11.078c1.702-.26 3.765.068 3.765 2.128v6.546h2.16v-9c1.702-.262 3.796.097 3.796 2.126v24.057zM91.99 16.119h-6.381V27.31h7.363c.392 1.704-.59 3.24-1.962 3.24h-9.33V12.879h10.31v3.24zM136.847 29.734h-4.09v-19.31c1.767-.262 4.09.034 4.09 2.128v4.353h3.927c.229 1.244.099 2.16-.36 2.683-.457.557-1.177.59-1.374.59h-2.193v9.556zm-14.074-6.544c1.637 0 2.816-1.54 2.816-3.111 0-1.57-1.18-3.108-2.816-3.108s-2.814 1.538-2.814 3.108c0 1.572 1.178 3.11 2.814 3.11zm14.402 10.177c.163 1.473-.197 3.24-1.964 3.24h-18.165V27.77h4.091v5.597h16.038zm-19.737-16.758h-2.684V13.37h5.925c.753-.983 1.636-2.39 2.422-4.256l3.862 1.637c-.262.62-.982 1.667-1.8 2.62h5.565c.23 1.242.064 2.093-.394 2.649-.458.557-1.146.588-1.34.588h-.886a5.433 5.433 0 0 1 1.54 3.798c0 3.306-2.947 5.892-6.875 5.892-3.926 0-6.872-2.586-6.872-5.892 0-1.44.557-2.783 1.537-3.798zM170.904 29.734h-4.09v-19.31c1.767-.262 4.09.034 4.09 2.128v4.026h3.928c.228 1.244.098 2.16-.36 2.682-.458.557-1.179.59-1.375.59h-2.193v9.884zm.328 3.633c.163 1.473-.197 3.24-1.964 3.24h-18.165v-9.49h4.091v6.25h16.038zm-7.92-21.142s0 1.669-.099 2.652c-.819 5.202-7.167 9.26-11.489 10.766h.033a2.07 2.07 0 0 1-.85.165c-.59-.066-1.015-.524-1.244-.852l-.099-.13-.914-1.277c3.926-1.735 8.835-4.058 10.177-8.084h-9.034v-3.24h13.52zM204.961 25.808h-4.09V10.423c1.767-.26 4.09.034 4.09 2.13v3.86h3.927c.229 1.243.098 2.16-.36 2.685-.458.557-1.178.59-1.374.59h-2.193v6.12zm-14.074-3.275c1.636 0 2.816-1.373 2.816-2.944 0-1.57-1.18-2.945-2.816-2.945s-2.814 1.374-2.814 2.945c0 1.571 1.178 2.944 2.814 2.944zm14.074 4.747v9.82h-4.09v-6.58h-15.874v-3.24h19.964zm-19.44-10.996h-2.653v-3.241h5.925c.753-.982 1.636-2.39 2.422-4.256l3.862 1.636c-.262.624-.982 1.672-1.8 2.62h5.565c.229 1.506-.099 3.24-1.735 3.24h-.885c.982 1.014 1.54 2.258 1.54 3.634 0 3.142-2.947 5.727-6.875 5.727-3.926 0-6.872-2.585-6.872-5.727 0-1.376.557-2.62 1.506-3.633z" fill="#1A2C7C"/>
        <g transform="translate(217.09 10.096)">
            <mask id="f4l0fqgxcd" fill="#fff">
                <use xlink:href="#oe8oqfdj5c"/>
            </mask>
            <path d="M22.91 26.838h-4.09V.656c1.733-.23 4.09.165 4.09 2.125v24.057zm-14.563-12.6c1.57 0 2.486-1.375 2.486-2.945 0-1.572-.916-2.948-2.486-2.948-1.572 0-2.488 1.376-2.488 2.948 0 1.57.916 2.946 2.488 2.946zm-4.78-6.741H.817V4.256h5.271c.753-.982 1.636-2.39 2.42-4.256l3.864 1.638c-.264.62-.982 1.669-1.8 2.618h5.466c.229 1.572-.099 3.24-1.8 3.24H13.09c1.114 1.08 1.801 2.487 1.801 3.96 0 2.486-1.898 4.712-4.419 5.564v3.47h7.202c.163 1.471-.229 3.237-1.964 3.237H0V20.49h6.383v-3.437c-2.62-.786-4.584-3.043-4.584-5.597 0-1.473.654-2.88 1.768-3.96z" fill="#1A2C7C" mask="url(#f4l0fqgxcd)"/>
        </g>
        <path d="m4.14 55.164.808-.814 3.984 5.192H7.47l-3.328-4.378zm-1.01-.298h.133l3.893-4.505h1.438l-3.65 4.14h-.058l-1.757 1.935v-1.57zm-1.05 4.676h1.145v-9.18H2.08v9.18zM13.115 58.4c.286-.194.509-.474.667-.841.16-.366.239-.81.239-1.326v-.014c0-.517-.08-.957-.24-1.323a1.85 1.85 0 0 0-.673-.833 1.827 1.827 0 0 0-1.021-.285c-.381 0-.717.095-1.009.288-.29.193-.516.471-.677.834-.161.362-.242.802-.242 1.32v.013c0 .517.08.96.242 1.326.161.367.387.647.677.84.292.193.631.29 1.022.29.39 0 .728-.097 1.015-.29m-2.628.85a2.837 2.837 0 0 1-1.075-1.194c-.257-.514-.385-1.122-.385-1.822v-.014c0-.703.128-1.311.385-1.822.256-.51.615-.904 1.075-1.183.461-.278.993-.417 1.6-.417.61 0 1.146.139 1.606.417a2.83 2.83 0 0 1 1.076 1.183c.257.51.385 1.119.385 1.822v.014c0 .705-.128 1.313-.385 1.825a2.856 2.856 0 0 1-1.073 1.191c-.458.279-.992.419-1.603.419-.61 0-1.145-.14-1.606-.419M16.267 52.924h1.107v1.12h.025c.11-.381.301-.685.573-.91a1.47 1.47 0 0 1 .967-.336 2.131 2.131 0 0 1 .445.044v1.074a1.06 1.06 0 0 0-.225-.044 3.479 3.479 0 0 0-.366-.018c-.284 0-.534.062-.748.19a1.26 1.26 0 0 0-.496.551c-.117.239-.175.526-.175.862v4.084h-1.107v-6.617zM21.055 59.249a2.738 2.738 0 0 1-1.05-1.187c-.244-.51-.366-1.112-.366-1.804v-.007c0-.682.122-1.283.37-1.802.245-.52.591-.926 1.036-1.216.446-.29.969-.435 1.572-.435.603 0 1.12.138 1.555.415.435.279.77.668 1.002 1.168.234.501.35 1.081.35 1.744v.407h-5.331v-.865h4.785l-.56.802v-.427c0-.514-.078-.937-.233-1.272-.155-.336-.367-.585-.64-.748a1.782 1.782 0 0 0-.935-.245c-.353 0-.667.085-.947.258-.28.172-.501.426-.663.763-.161.338-.242.752-.242 1.244v.427c0 .466.08.865.239 1.194.16.332.386.585.677.762.293.176.64.263 1.038.263.28 0 .53-.043.752-.127.219-.085.403-.2.553-.349.148-.15.254-.318.318-.509l.018-.058h1.088l-.012.065c-.056.27-.16.525-.315.762a2.46 2.46 0 0 1-.594.627 2.796 2.796 0 0 1-.827.42c-.31.1-.646.15-1.007.15-.631 0-1.175-.14-1.631-.42M27.42 59.42a1.851 1.851 0 0 1-.773-.7 1.969 1.969 0 0 1-.276-1.05v-.013c0-.563.209-1.015.629-1.35.42-.339 1.01-.528 1.77-.57l2.448-.14v.86l-2.322.14c-.441.024-.784.13-1.028.317a.888.888 0 0 0-.365.743v.013c0 .318.12.57.359.758.24.187.56.28.959.28.347 0 .659-.074.937-.22.279-.147.5-.346.662-.602.164-.253.244-.54.244-.858v-1.953c0-.403-.125-.72-.377-.952-.254-.23-.61-.346-1.073-.346-.425 0-.766.092-1.028.277-.26.184-.422.425-.486.722l-.013.057h-1.07l.007-.07c.035-.365.159-.696.373-.993.214-.296.51-.533.888-.71.377-.174.825-.263 1.343-.263.52 0 .972.089 1.35.267.381.18.675.43.882.754.208.325.312.707.312 1.149v4.573h-1.108v-1.074h-.024a2.094 2.094 0 0 1-.51.633 2.4 2.4 0 0 1-1.559.57c-.436 0-.82-.084-1.15-.249M33.178 52.924h1.107v.941h.025c.178-.308.436-.565.776-.766.34-.2.76-.301 1.26-.301.725 0 1.289.219 1.69.657.4.44.6 1.036.6 1.79v4.296H37.53v-4.097c0-.54-.125-.951-.379-1.238-.252-.286-.632-.43-1.141-.43-.348 0-.651.078-.91.233-.259.154-.46.372-.601.652-.142.28-.213.61-.213.987v3.893h-1.107v-6.617zM46.15 51.735V50.36h.554l3.41 9.18h-1.202l-2.762-7.806zm-2.048 4.204h4.072l.382.974H43.72l.382-.974zm1.47-5.578h.845v1.374h-.291l-2.768 7.806h-1.203l3.417-9.18zM51.997 59.42a2.16 2.16 0 0 1-.894-.693 2.143 2.143 0 0 1-.397-1.037l-.007-.057h1.107l.013.064c.068.33.228.588.477.773.25.184.6.276 1.05.276.3 0 .558-.04.77-.118a1.07 1.07 0 0 0 .49-.336.813.813 0 0 0 .17-.52v-.006c0-.237-.07-.428-.215-.573-.143-.144-.405-.262-.783-.356l-1.05-.254c-.622-.148-1.087-.372-1.393-.672-.305-.298-.458-.686-.458-1.16v-.007c0-.382.104-.72.31-1.011.206-.294.49-.523.858-.687a3.027 3.027 0 0 1 1.262-.25c.485 0 .905.086 1.264.26.357.17.64.403.847.698.204.295.321.628.346.997l.006.082h-1.056l-.006-.044a1.152 1.152 0 0 0-.424-.776c-.239-.196-.565-.294-.977-.294-.267 0-.497.042-.692.122a.985.985 0 0 0-.45.34.865.865 0 0 0-.155.512v.007c0 .224.081.415.241.571.162.159.425.28.79.37l1.049.255c.67.161 1.142.382 1.413.664.27.282.407.659.407 1.13v.007c0 .385-.112.726-.334 1.023a2.21 2.21 0 0 1-.916.697 3.296 3.296 0 0 1-1.32.252c-.517 0-.965-.084-1.343-.249M58.06 59.42a2.16 2.16 0 0 1-.894-.693 2.143 2.143 0 0 1-.397-1.037l-.007-.057h1.107l.013.064c.068.33.228.588.477.773.25.184.601.276 1.05.276.3 0 .558-.04.77-.118a1.07 1.07 0 0 0 .49-.336.813.813 0 0 0 .171-.52v-.006c0-.237-.07-.428-.216-.573-.143-.144-.405-.262-.783-.356l-1.049-.254c-.623-.148-1.087-.372-1.394-.672-.305-.298-.458-.686-.458-1.16v-.007c0-.382.104-.72.31-1.011.206-.294.49-.523.858-.687a3.027 3.027 0 0 1 1.262-.25c.485 0 .905.086 1.264.26.358.17.64.403.847.698.204.295.321.628.346.997l.006.082h-1.056l-.006-.044a1.152 1.152 0 0 0-.424-.776c-.239-.196-.565-.294-.977-.294-.267 0-.497.042-.692.122a.985.985 0 0 0-.45.34.865.865 0 0 0-.154.512v.007c0 .224.08.415.24.571.162.159.425.28.79.37l1.049.255c.67.161 1.142.382 1.414.664.27.282.407.659.407 1.13v.007c0 .385-.113.726-.335 1.023a2.21 2.21 0 0 1-.916.697 3.296 3.296 0 0 1-1.32.252c-.517 0-.965-.084-1.343-.249M66.882 58.4c.286-.194.509-.474.667-.841.16-.366.239-.81.239-1.326v-.014c0-.517-.08-.957-.24-1.323a1.85 1.85 0 0 0-.673-.833 1.827 1.827 0 0 0-1.021-.285c-.381 0-.717.095-1.009.288-.29.193-.516.471-.677.834-.161.362-.242.802-.242 1.32v.013c0 .517.08.96.242 1.326.161.367.387.647.677.84.292.193.631.29 1.022.29.39 0 .728-.097 1.015-.29m-2.628.85a2.837 2.837 0 0 1-1.075-1.194c-.257-.514-.385-1.122-.385-1.822v-.014c0-.703.128-1.311.385-1.822.256-.51.615-.904 1.075-1.183.461-.278.993-.417 1.6-.417.61 0 1.146.139 1.606.417a2.83 2.83 0 0 1 1.076 1.183c.257.51.385 1.119.385 1.822v.014c0 .705-.128 1.313-.385 1.825a2.856 2.856 0 0 1-1.073 1.191c-.458.279-.992.419-1.603.419-.61 0-1.145-.14-1.606-.419M71.15 59.245a2.802 2.802 0 0 1-1.065-1.196c-.25-.516-.376-1.122-.376-1.822v-.007c0-.695.129-1.3.382-1.814.256-.512.612-.91 1.07-1.19.458-.28.992-.42 1.603-.42.552 0 1.025.108 1.418.322.394.214.706.49.933.83.226.34.362.699.41 1.076l.007.051h-1.083l-.013-.051a1.706 1.706 0 0 0-.53-.872c-.274-.25-.654-.375-1.142-.375-.382 0-.717.1-1.005.303a1.978 1.978 0 0 0-.676.852c-.16.367-.24.8-.24 1.301v.005c0 .514.08.953.244 1.318.164.365.39.645.682.839.29.196.626.293 1.008.293.453 0 .82-.115 1.104-.346.282-.232.47-.532.562-.9l.013-.052h1.087l-.006.044c-.06.42-.213.8-.46 1.137a2.644 2.644 0 0 1-.962.801 2.932 2.932 0 0 1-1.338.297c-.624 0-1.166-.142-1.626-.424" fill="#231916"/>
        <mask id="9623htcvgf" fill="#fff">
            <use xlink:href="#3ik7666z5e"/>
        </mask>
        <path d="M76.631 59.542h1.107v-6.617h-1.107v6.617zm.064-7.942a.668.668 0 0 1-.204-.489c0-.194.07-.36.204-.493a.672.672 0 0 1 .49-.2c.196 0 .36.067.494.2a.67.67 0 0 1 .2.493.67.67 0 0 1-.2.49.663.663 0 0 1-.494.204.662.662 0 0 1-.49-.205zM80.03 59.42a1.851 1.851 0 0 1-.774-.7 1.969 1.969 0 0 1-.276-1.05v-.013c0-.563.209-1.015.63-1.35.42-.339 1.01-.528 1.769-.57l2.448-.14v.86l-2.322.14c-.441.024-.784.13-1.028.317a.888.888 0 0 0-.365.743v.013c0 .318.12.57.359.758.24.187.56.28.959.28.347 0 .659-.074.937-.22.279-.147.5-.346.663-.602.163-.253.243-.54.243-.858v-1.953c0-.403-.125-.72-.377-.952-.254-.23-.61-.346-1.073-.346-.425 0-.766.092-1.028.277-.26.184-.421.425-.486.722l-.013.057h-1.07l.007-.07c.035-.365.159-.696.373-.993.214-.296.51-.533.888-.71.377-.174.825-.263 1.343-.263.52 0 .972.089 1.35.267.381.18.675.43.882.754.208.325.312.707.312 1.149v4.573h-1.108v-1.074h-.024a2.094 2.094 0 0 1-.51.633 2.4 2.4 0 0 1-1.559.57c-.436 0-.82-.084-1.15-.249M86.576 59.236c-.302-.289-.452-.748-.452-1.38V53.84h-.967v-.916h.967v-1.788h1.146v1.788h1.258v.916H87.27v4.009c0 .352.075.591.229.716.153.125.377.188.673.188.068 0 .134-.003.195-.01l.161-.016v.898l-.263.028a3.58 3.58 0 0 1-.328.016c-.606 0-1.06-.145-1.361-.433M89.783 59.542h1.107v-6.617h-1.107v6.617zm.064-7.942a.662.662 0 0 1-.205-.489c0-.194.068-.36.205-.493a.672.672 0 0 1 .49-.2c.194 0 .358.067.492.2a.671.671 0 0 1 .2.493.672.672 0 0 1-.2.49.662.662 0 0 1-.493.204.662.662 0 0 1-.49-.205zM96.16 58.4c.287-.194.51-.474.668-.841.16-.366.239-.81.239-1.326v-.014c0-.517-.08-.957-.24-1.323a1.85 1.85 0 0 0-.673-.833 1.827 1.827 0 0 0-1.021-.285c-.381 0-.717.095-1.009.288-.29.193-.516.471-.677.834-.161.362-.242.802-.242 1.32v.013c0 .517.08.96.242 1.326.161.367.387.647.677.84.292.193.631.29 1.022.29.39 0 .728-.097 1.015-.29m-2.628.85a2.837 2.837 0 0 1-1.075-1.194c-.257-.514-.385-1.122-.385-1.822v-.014c0-.703.128-1.311.385-1.822.256-.51.615-.904 1.075-1.183.461-.278.993-.417 1.6-.417.61 0 1.146.139 1.606.417a2.83 2.83 0 0 1 1.076 1.183c.257.51.385 1.119.385 1.822v.014c0 .705-.128 1.313-.385 1.825a2.856 2.856 0 0 1-1.073 1.191c-.458.279-.992.419-1.603.419-.61 0-1.145-.14-1.606-.419M99.313 52.924h1.107v.941h.025c.178-.308.437-.565.776-.766.34-.2.76-.301 1.26-.301.725 0 1.289.219 1.69.657.4.44.6 1.036.6 1.79v4.296h-1.107v-4.097c0-.54-.125-.951-.379-1.238-.252-.286-.632-.43-1.141-.43-.348 0-.651.078-.91.233-.258.154-.46.372-.601.652-.142.28-.213.61-.213.987v3.893h-1.107v-6.617zM109.206 53.84h-.922v-.916h.922v-.813c0-.636.15-1.11.449-1.416.3-.308.754-.461 1.365-.461.122 0 .246.003.368.011.123.009.226.02.306.033v.897a3.732 3.732 0 0 0-.478-.025c-.304 0-.533.079-.687.237-.151.16-.229.402-.229.73v.807h1.363v.917h-1.35v5.7h-1.107v-5.7zM115.934 58.4c.287-.194.51-.474.668-.841.16-.366.239-.81.239-1.326v-.014c0-.517-.08-.957-.24-1.323a1.85 1.85 0 0 0-.673-.833 1.827 1.827 0 0 0-1.022-.285c-.38 0-.717.095-1.008.288-.29.193-.516.471-.677.834-.162.362-.243.802-.243 1.32v.013c0 .517.081.96.243 1.326.161.367.387.647.677.84.291.193.63.29 1.021.29.39 0 .729-.097 1.015-.29m-2.628.85a2.837 2.837 0 0 1-1.074-1.194c-.257-.514-.385-1.122-.385-1.822v-.014c0-.703.128-1.311.385-1.822.255-.51.615-.904 1.074-1.183.462-.278.994-.417 1.6-.417.611 0 1.147.139 1.607.417a2.83 2.83 0 0 1 1.076 1.183c.257.51.385 1.119.385 1.822v.014c0 .705-.128 1.313-.385 1.825a2.856 2.856 0 0 1-1.073 1.191c-.458.279-.992.419-1.603.419-.61 0-1.145-.14-1.607-.419M119.087 52.924h1.107v1.12h.025c.11-.381.301-.685.573-.91a1.47 1.47 0 0 1 .967-.336 2.131 2.131 0 0 1 .445.044v1.074a1.06 1.06 0 0 0-.226-.044 3.479 3.479 0 0 0-.365-.018c-.284 0-.534.062-.748.19a1.26 1.26 0 0 0-.496.551c-.117.239-.175.526-.175.862v4.084h-1.107v-6.617zM126.563 59.236c-.302-.289-.452-.748-.452-1.38V53.84h-.967v-.916h.967v-1.788h1.145v1.788h1.259v.916h-1.259v4.009c0 .352.076.591.23.716.152.125.376.188.673.188.068 0 .134-.003.194-.01l.162-.016v.898l-.264.028a3.58 3.58 0 0 1-.328.016c-.606 0-1.059-.145-1.36-.433M129.756 50.36h1.107v3.62h.025a1.98 1.98 0 0 1 .796-.871c.353-.208.774-.312 1.265-.312.472 0 .885.114 1.238.341.354.226.63.54.83.944.2.404.3.872.3 1.406v4.053h-1.107v-3.862c0-.598-.145-1.064-.434-1.399-.288-.336-.69-.502-1.207-.502-.34 0-.638.08-.895.24a1.626 1.626 0 0 0-.598.67 2.193 2.193 0 0 0-.213.99v3.863h-1.107v-9.18zM137.814 59.249a2.738 2.738 0 0 1-1.05-1.187c-.243-.51-.365-1.112-.365-1.804v-.007c0-.682.122-1.283.369-1.802.245-.52.591-.926 1.036-1.216.447-.29.969-.435 1.572-.435.603 0 1.12.138 1.555.415.435.279.77.668 1.002 1.168.234.501.351 1.081.351 1.744v.407h-5.332v-.865h4.785l-.56.802v-.427c0-.514-.078-.937-.233-1.272-.154-.336-.367-.585-.639-.748a1.782 1.782 0 0 0-.936-.245c-.352 0-.667.085-.947.258-.28.172-.5.426-.662.763-.162.338-.243.752-.243 1.244v.427c0 .466.081.865.24 1.194.16.332.385.585.676.762.294.176.64.263 1.038.263.28 0 .531-.043.752-.127.219-.085.403-.2.553-.349.149-.15.254-.318.318-.509l.019-.058h1.087l-.012.065c-.056.27-.16.525-.314.762a2.46 2.46 0 0 1-.595.627 2.796 2.796 0 0 1-.827.42c-.31.1-.646.15-1.007.15-.63 0-1.175-.14-1.631-.42M147.497 59.385c-.502-.206-.901-.499-1.196-.881a2.451 2.451 0 0 1-.5-1.355l-.006-.089h1.145l.014.09c.046.304.17.568.375.79.203.224.473.396.81.516.339.122.727.181 1.169.181.44 0 .822-.062 1.145-.188.321-.125.572-.303.746-.537.177-.234.266-.507.266-.82v-.007c0-.402-.14-.725-.42-.967-.28-.242-.737-.432-1.368-.572l-1.018-.224c-.895-.2-1.559-.506-1.989-.92-.43-.413-.646-.953-.646-1.624v-.006a2.27 2.27 0 0 1 .42-1.333c.276-.384.656-.686 1.142-.903.486-.22 1.043-.328 1.67-.328.599 0 1.133.107 1.604.321.471.214.847.513 1.129.893.281.383.44.824.474 1.325l.007.096h-1.145l-.013-.091a1.592 1.592 0 0 0-.345-.8c-.181-.222-.42-.391-.715-.51a2.742 2.742 0 0 0-1.028-.178 2.83 2.83 0 0 0-1.068.185 1.631 1.631 0 0 0-.71.515c-.168.22-.25.48-.25.776v.007c0 .372.141.68.425.921.285.242.726.428 1.323.56l1.018.223c.943.209 1.623.515 2.043.919.42.405.63.959.63 1.658v.006c0 .544-.137 1.013-.41 1.412-.274.399-.665.707-1.17.923-.508.217-1.111.324-1.811.324-.663 0-1.244-.102-1.747-.308M154.588 59.236c-.302-.289-.451-.748-.451-1.38V53.84h-.968v-.916h.968v-1.788h1.145v1.788h1.258v.916h-1.258v4.009c0 .352.075.591.229.716.153.125.377.188.674.188.067 0 .133-.003.194-.01l.161-.016v.898l-.263.028a3.58 3.58 0 0 1-.328.016c-.606 0-1.06-.145-1.361-.433M158.746 59.37a1.957 1.957 0 0 1-.783-.85c-.18-.367-.27-.8-.27-1.3v-4.296h1.107v4.097c0 .54.125.951.38 1.238.251.286.632.43 1.14.43.349 0 .652-.078.91-.232.26-.155.46-.375.602-.656a2.16 2.16 0 0 0 .212-.982v-3.895h1.108v6.617h-1.108V58.6h-.024c-.178.31-.437.565-.773.766-.338.201-.76.302-1.264.302-.483 0-.896-.1-1.237-.299M168.285 58.383c.289-.204.514-.49.678-.858.163-.37.245-.801.245-1.292v-.007c0-.492-.082-.92-.249-1.288a2.039 2.039 0 0 0-.677-.855 1.66 1.66 0 0 0-.989-.307c-.39 0-.728.1-1.011.3-.285.2-.503.481-.656.846-.153.365-.229.8-.229 1.304v.007c0 .504.076.94.23 1.31.152.369.37.652.655.85.283.198.621.295 1.011.295.373 0 .704-.1.992-.305m-2.687.862c-.422-.282-.75-.68-.984-1.196-.232-.516-.349-1.12-.349-1.816v-.007c0-.695.117-1.3.353-1.814.235-.512.563-.91.982-1.192.42-.282.906-.422 1.458-.422.466 0 .883.11 1.252.33.37.22.657.522.867.904h.024V50.36h1.108v9.18H169.2v-1.12h-.024a2.39 2.39 0 0 1-.85.913c-.358.222-.775.334-1.251.334-.563 0-1.056-.141-1.478-.423M172.119 61.752a3.928 3.928 0 0 1-.27-.035v-.904c.045.01.1.018.16.026.063.008.128.013.195.013.353 0 .633-.062.844-.184.21-.124.38-.373.512-.745l.134-.376-2.457-6.623h1.183l1.91 5.765-.236-.255h.331l-.235.255 1.914-5.765h1.165l-2.583 7.03c-.157.42-.333.765-.528 1.032a1.819 1.819 0 0 1-.706.591c-.276.127-.613.191-1.012.191-.106 0-.213-.006-.321-.016M184.576 58.4c.286-.194.509-.474.667-.841.16-.366.239-.81.239-1.326v-.014c0-.517-.08-.957-.239-1.323a1.85 1.85 0 0 0-.674-.833 1.827 1.827 0 0 0-1.021-.285c-.38 0-.717.095-1.009.288-.29.193-.515.471-.677.834-.161.362-.242.802-.242 1.32v.013c0 .517.08.96.242 1.326.162.367.387.647.677.84.292.193.631.29 1.022.29.39 0 .728-.097 1.015-.29m-2.628.85a2.837 2.837 0 0 1-1.074-1.194c-.257-.514-.386-1.122-.386-1.822v-.014c0-.703.129-1.311.386-1.822.255-.51.614-.904 1.074-1.183.461-.278.993-.417 1.6-.417.61 0 1.146.139 1.606.417a2.83 2.83 0 0 1 1.076 1.183c.257.51.386 1.119.386 1.822v.014c0 .705-.129 1.313-.386 1.825a2.856 2.856 0 0 1-1.073 1.191c-.458.279-.991.419-1.603.419-.61 0-1.145-.14-1.606-.419M188.085 53.84h-.923v-.916h.923v-.813c0-.636.15-1.11.448-1.416.3-.308.754-.461 1.366-.461.122 0 .245.003.367.011.124.009.226.02.306.033v.897a3.732 3.732 0 0 0-.477-.025c-.305 0-.534.079-.687.237-.152.16-.23.402-.23.73v.807h1.363v.917h-1.35v5.7h-1.106v-5.7zM195.147 59.236c-.302-.289-.452-.748-.452-1.38V53.84h-.967v-.916h.967v-1.788h1.145v1.788h1.26v.916h-1.26v4.009c0 .352.076.591.23.716.153.125.377.188.673.188.068 0 .134-.003.195-.01l.161-.016v.898l-.264.028a3.58 3.58 0 0 1-.327.016c-.607 0-1.06-.145-1.361-.433M198.34 50.36h1.108v3.62h.024a1.98 1.98 0 0 1 .796-.871c.353-.208.775-.312 1.266-.312.47 0 .884.114 1.237.341.354.226.63.54.83.944.2.404.3.872.3 1.406v4.053h-1.107v-3.862c0-.598-.145-1.064-.433-1.399-.289-.336-.69-.502-1.208-.502-.34 0-.638.08-.895.24a1.626 1.626 0 0 0-.598.67 2.193 2.193 0 0 0-.212.99v3.863h-1.108v-9.18zM206.398 59.249a2.738 2.738 0 0 1-1.05-1.187c-.243-.51-.365-1.112-.365-1.804v-.007c0-.682.122-1.283.369-1.802.245-.52.591-.926 1.036-1.216.445-.29.969-.435 1.572-.435.603 0 1.12.138 1.555.415.435.279.77.668 1.002 1.168.234.501.351 1.081.351 1.744v.407h-5.332v-.865h4.785l-.56.802v-.427c0-.514-.078-.937-.232-1.272-.155-.336-.37-.585-.64-.748a1.782 1.782 0 0 0-.936-.245c-.352 0-.667.085-.947.258-.28.172-.5.426-.662.763-.162.338-.242.752-.242 1.244v.427c0 .466.08.865.238 1.194.16.332.386.585.678.762.293.176.639.263 1.038.263.28 0 .53-.043.751-.127.22-.085.404-.2.554-.349.148-.15.253-.318.318-.509l.018-.058h1.087l-.011.065c-.056.27-.16.525-.315.762a2.46 2.46 0 0 1-.595.627 2.796 2.796 0 0 1-.827.42c-.31.1-.646.15-1.007.15-.63 0-1.174-.14-1.63-.42M214.825 50.36h1.145v8.151h4.429v1.03h-5.574zM221.556 59.542h1.108v-6.617h-1.108v6.617zm.063-7.942a.667.667 0 0 1-.203-.489c0-.194.068-.36.203-.493a.678.678 0 0 1 .491-.2c.194 0 .36.067.493.2a.671.671 0 0 1 .2.493.672.672 0 0 1-.2.49.661.661 0 0 1-.493.204.668.668 0 0 1-.49-.205zM223.598 52.924h1.165l1.826 5.44h.025l1.832-5.44h1.151l-2.43 6.617h-1.132zM231.3 59.249a2.738 2.738 0 0 1-1.05-1.187c-.244-.51-.365-1.112-.365-1.804v-.007c0-.682.121-1.283.369-1.802.245-.52.591-.926 1.036-1.216.446-.29.969-.435 1.572-.435.603 0 1.12.138 1.555.415.435.279.77.668 1.002 1.168.234.501.35 1.081.35 1.744v.407h-5.33v-.865h4.784l-.56.802v-.427c0-.514-.078-.937-.233-1.272-.155-.336-.367-.585-.639-.748a1.782 1.782 0 0 0-.936-.245c-.352 0-.667.085-.947.258-.28.172-.501.426-.663.763-.161.338-.242.752-.242 1.244v.427c0 .466.081.865.24 1.194.159.332.385.585.676.762.294.176.64.263 1.038.263.28 0 .53-.043.752-.127.219-.085.403-.2.553-.349.149-.15.254-.318.318-.509l.018-.058h1.088l-.012.065c-.056.27-.16.525-.314.762a2.46 2.46 0 0 1-.595.627 2.796 2.796 0 0 1-.827.42c-.31.1-.646.15-1.007.15-.631 0-1.175-.14-1.631-.42M236.883 52.924h1.107v1.12h.025c.11-.381.301-.685.573-.91a1.47 1.47 0 0 1 .967-.336 2.131 2.131 0 0 1 .445.044v1.074a1.06 1.06 0 0 0-.226-.044 3.479 3.479 0 0 0-.365-.018c-.284 0-.534.062-.749.19a1.26 1.26 0 0 0-.495.551c-.117.239-.175.526-.175.862v4.084h-1.107v-6.617z" fill="#231916" mask="url(#9623htcvgf)"/>
    </g>
</svg>
