<svg width="36" height="32" viewBox="0 0 36 32" xmlns="http://www.w3.org/2000/svg">
    <path d="m5.889.505-.371.556L0 9.333l16.787 20.654c.03.049.068.088.108.127l.908 1.123.937-1.152.03-.04c.01 0 .01-.009.02-.019L35.604 9.333 29.717.505H5.889zm1.328 2.5h6.66l-4.16 5h-5.82l3.32-5zm9.922 0h1.328l4.16 5h-9.648l4.16-5zm4.59 0h6.66l3.32 5h-5.82l-4.16-5zm-17.55 7.5h5.255l4.502 12.011L4.18 10.505zm7.92 0h11.407L17.803 25.69 12.1 10.505zm14.073 0h5.254L21.67 22.516l4.502-12.011z" fill="#3ABBE7" fill-rule="nonzero"/>
</svg>
