<svg width="28" height="34" viewBox="0 0 28 34" xmlns="http://www.w3.org/2000/svg">
    <path d="M1.303.755a1.25 1.25 0 0 0-1.109 1.83l5.923 11.25c-2.182 2.055-3.564 4.947-3.564 8.17 0 6.198 5.051 11.25 11.25 11.25 6.198 0 11.25-5.052 11.25-11.25 0-3.223-1.383-6.115-3.565-8.17l5.923-11.25a1.25 1.25 0 0 0-1.108-1.83h-7.188a1.25 1.25 0 0 0-1.103.664l-4.21 7.925-4.208-7.925A1.25 1.25 0 0 0 8.49.755H1.303zm2.07 2.5h4.365l4.092 7.7a11.119 11.119 0 0 0-3.677 1.377l-4.78-9.077zm16.494 0h4.365l-4.78 9.077a11.119 11.119 0 0 0-3.677-1.377l4.092-7.7zm-6.064 10a8.731 8.731 0 0 1 8.75 8.75 8.731 8.731 0 0 1-8.75 8.75 8.731 8.731 0 0 1-8.75-8.75 8.731 8.731 0 0 1 8.75-8.75zm-6.25 5v7.5h2.5v-7.5h-2.5zm5 0v7.5h2.5v-7.5h-2.5zm5 0v7.5h2.5v-7.5h-2.5z" fill="#C78A42" fill-rule="nonzero"/>
</svg>
