<svg width="136" height="20" viewBox="0 0 136 20" xmlns="http://www.w3.org/2000/svg">
    <g fill="none" fill-rule="evenodd">
        <path fill="#1428A0" d="m133.951 3.695-.006 7.3h-2.23v1.307h2.23l.001 1.257 1.608-.001V3.693zM127.6 11.642v4.309h8.06v-1.364h-6.506v-2.945z"/>
        <path fill="#1428A0" d="M129.54 12.868h1.43v-2.354h2.421V9.081h-6.974v1.433h3.123zM130.106 4.434c.946 0 1.712.684 1.712 1.528 0 .845-.766 1.529-1.712 1.529-.945 0-1.712-.684-1.712-1.529 0-.844.767-1.528 1.712-1.528m0 4.347c1.745 0 3.16-1.262 3.16-2.819 0-1.556-1.415-2.818-3.16-2.818-1.744 0-3.159 1.262-3.159 2.818 0 1.557 1.415 2.82 3.159 2.82M106.198 9.926h3.848v.804h-3.117v1.222h6.433v.815h-6.433v3.216h8.049v-1.22h-6.548v-.776h6.434V10.73h-3.24v-.804h3.992V8.66h-9.418zM103.449 7.83h-2.33V9.12h2.33v6.734h1.588V3.65h-1.588zM83.558 7.728h1.381V6.4h-1.356V3.663h-1.59v6.477h1.565zM77.634 14.68h4.422v-2.713h-4.422v2.712zm-1.532 1.294h7.481v-5.301h-7.481v5.3zM77.504 7.11c.47 1.5 2.552 2.874 2.552 2.874l.815-1.126c-2.841-1.455-2.633-4.96-2.633-4.96h-1.47s.206 3.505-2.63 4.96l.815 1.126s2.076-1.374 2.551-2.874M92.8 10.14h1.564V3.663h-1.59v2.178h-2.003v1.325H92.8zM90.366 15.002c-1.444 0-2.615-.792-2.615-1.767 0-.979 1.171-1.769 2.615-1.769 1.443 0 2.617.79 2.617 1.77 0 .974-1.174 1.766-2.617 1.766m0-4.935c-2.324 0-4.207 1.42-4.207 3.168 0 1.749 1.883 3.166 4.207 3.166 2.325 0 4.206-1.417 4.206-3.166 0-1.748-1.88-3.168-4.206-3.168M121.544 15c-1.443 0-2.615-.757-2.615-1.69 0-.931 1.172-1.687 2.615-1.687 1.445 0 2.617.756 2.617 1.687 0 .933-1.172 1.69-2.617 1.69m0-4.734c-2.326 0-4.207 1.365-4.207 3.044 0 1.683 1.881 3.046 4.207 3.046 2.324 0 4.207-1.363 4.207-3.046 0-1.679-1.883-3.044-4.207-3.044M88.082 7.11c.47 1.5 2.376 2.757 2.376 2.757l.815-1.127C88.61 7.403 88.82 3.897 88.82 3.897h-1.476s.213 3.506-2.453 4.843l.815 1.127s1.905-1.257 2.376-2.757M110.956 4.44c1.165 0 2.665.402 2.665 1.31 0 .904-1.5 1.307-2.665 1.307-1.168 0-2.659-.403-2.659-1.307 0-.908 1.491-1.31 2.66-1.31m-.031 3.855c2.32 0 4.171-.944 4.171-2.498 0-1.553-1.85-2.611-4.171-2.611-2.322 0-4.166 1.058-4.166 2.611 0 1.554 1.844 2.498 4.166 2.498M99.984 9.604c-.532-1.584-.458-3.563-.458-4.188V3.92h-1.593v1.495c0 .625.13 2.604-.4 4.188-.385 1.142-1.2 2.38-2.336 3.217l.984 1.007s1.762-1.368 2.577-3.563c.813 2.195 2.52 3.563 2.52 3.563l.929-1.007c-1.136-.837-1.843-2.075-2.223-3.217"/>
        <path d="M122.245 7.29h1.733V6.186h-1.733V7.29zm-4.087 1.233h2.613v-1.73h-2.613v1.73zm4.087.09h1.733v1.811h1.565V3.618h-1.592v1.244h-1.706V3.693h-1.474v1.813h-2.613V3.693h-1.474v6.119h5.561V8.613zM60.696 4.763c.823 4.7-11.98 10.86-28.592 13.755C15.492 21.409 1.36 19.942.537 15.236c-.816-4.7 11.99-10.86 28.602-13.75C45.75-1.411 59.878.057 60.696 4.763" fill="#1428A0"/>
        <path fill="#FFF" d="m45.063 11.742-.088-4.89h1.542v6.163h-2.214l-1.541-5.057h-.033l.087 5.057h-1.533V6.852h2.313l1.431 4.89M17.04 7.43l-.856 5.65h-1.683l1.156-6.228h2.772l1.148 6.229h-1.674l-.83-5.651M24.3 11.615l.768-4.762h2.54l.137 6.228h-1.558l-.04-5.6h-.034l-1.04 5.6h-1.58l-1.04-5.6h-.035l-.039 5.6h-1.56l.136-6.228h2.543l.767 4.762M11.88 11.323c.062.151.042.347.014.462-.051.206-.192.417-.605.417-.393 0-.629-.222-.629-.565v-.603H8.988l-.001.482c0 1.388 1.095 1.808 2.264 1.808 1.127 0 2.056-.386 2.202-1.424a3.09 3.09 0 0 0-.003-1.024c-.264-1.301-2.63-1.69-2.806-2.42a.816.816 0 0 1-.007-.326c.046-.202.18-.42.57-.42.366 0 .582.226.582.564v.389h1.55v-.44c0-1.355-1.218-1.57-2.1-1.57-1.106 0-2.013.366-2.178 1.383-.044.277-.05.53.014.84.272 1.271 2.485 1.642 2.804 2.447M32.13 11.313a.79.79 0 0 1 .014.453c-.052.207-.19.416-.602.416-.384 0-.62-.225-.62-.557l-.003-.597h-1.652v.473c0 1.376 1.083 1.79 2.24 1.79 1.116 0 2.034-.38 2.179-1.407.077-.534.021-.88-.003-1.011-.263-1.294-2.602-1.679-2.775-2.4a.775.775 0 0 1-.008-.322c.045-.201.176-.414.565-.414.36 0 .57.22.57.557v.38h1.541V8.24c0-1.34-1.208-1.55-2.081-1.55-1.095 0-1.992.36-2.154 1.367a2.08 2.08 0 0 0 .013.833c.269 1.26 2.46 1.627 2.777 2.424M37.36 12.149c.433 0 .567-.297.597-.453.012-.065.015-.156.015-.236V6.852h1.575v4.467c.003.112-.009.35-.011.407-.112 1.165-1.029 1.54-2.175 1.54s-2.065-.375-2.175-1.54a5.998 5.998 0 0 1-.013-.407V6.852h1.575v4.608c0 .08.002.17.014.236.032.156.164.453.599.453M50.35 12.083c.452 0 .608-.284.637-.45.013-.073.015-.16.015-.239v-.903h-.64v-.908h2.21v1.672a4.15 4.15 0 0 1-.025.409c-.102 1.134-1.084 1.536-2.186 1.536-1.108 0-2.091-.402-2.196-1.536-.014-.209-.021-.294-.021-.409v-2.62c0-.116.015-.31.028-.415.136-1.163 1.081-1.537 2.189-1.537 1.102 0 2.068.372 2.183 1.537.02.199.015.414.015.414v.205h-1.573V8.49s0-.146-.02-.236c-.027-.14-.145-.454-.621-.454-.453 0-.587.298-.619.454-.02.08-.025.192-.025.294v2.846a1.1 1.1 0 0 0 .013.24c.03.165.186.45.636.45"/>
    </g>
</svg>
