<svg width="149" height="163" viewBox="0 0 149 163" xmlns="http://www.w3.org/2000/svg" xmlns:xlink="http://www.w3.org/1999/xlink">
    <defs>
        <path d="M42.14.102C16.53 1.31 2.582 21.006.682 35.248c-3.723 27.914 7.15 54.975 48.621 64.483 0 0 1.656 11.048 2.414 14.828.933 4.657 11.956 4.687 15.43 3.015 3.238-1.56 4.855-18.412 4.855-18.412s11.79-1.58 23.533-9.431c8.251-5.517 18.68-24.74 24.458-30.345 7.533-7.307 27.239-25.512 27.242-37.241.004-14.828-28.966-16.207-47.932-14.138-6.562.716-14.341-1.611-23.81-3.937C67.21 2.035 57.636 0 46.454 0c-1.413 0-2.85.033-4.315.102z" id="0s36j0070a"/>
        <path d="M42.14.102C16.53 1.31 2.582 21.006.682 35.248c-3.723 27.914 7.15 54.975 48.621 64.483 0 0 1.656 11.048 2.414 14.828.933 4.657 11.956 4.687 15.43 3.015 3.238-1.56 4.855-18.412 4.855-18.412s11.79-1.58 23.533-9.431c8.251-5.517 18.68-24.74 24.458-30.345 7.533-7.307 27.239-25.512 27.242-37.241.004-14.828-28.966-16.207-47.932-14.138-6.562.716-14.341-1.611-23.81-3.937C67.21 2.035 57.636 0 46.454 0c-1.413 0-2.85.033-4.315.102" id="324tachxbc"/>
        <path d="M42.14.102C16.53 1.31 2.582 21.006.682 35.248c-3.723 27.914 7.15 54.975 48.621 64.483 0 0 1.656 11.048 2.414 14.828.933 4.657 11.956 4.687 15.43 3.015 3.238-1.56 4.855-18.412 4.855-18.412s11.79-1.58 23.533-9.431c8.251-5.517 18.68-24.74 24.458-30.345 7.533-7.307 27.239-25.512 27.242-37.241.004-14.828-28.966-16.207-47.932-14.138-6.562.716-14.341-1.611-23.81-3.937C67.21 2.035 57.636 0 46.454 0c-1.413 0-2.85.033-4.315.102z" id="pk9h908kse"/>
        <path id="rbxrgwxbug" d="M0 0h28.35v38.336H0z"/>
    </defs>
    <g fill="none" fill-rule="evenodd">
        <path d="M43.023 33.393C17.413 34.6 3.464 54.297 1.565 68.54c-3.724 27.914 7.149 54.974 48.62 64.482 0 0 1.657 11.048 2.415 14.828.933 4.658 11.956 4.688 15.43 3.015 3.237-1.559 4.854-18.412 4.854-18.412s11.791-1.58 23.533-9.43c8.252-5.518 18.68-24.74 24.459-30.345 7.533-7.307 27.238-25.513 27.241-37.242.005-14.828-28.965-16.207-47.93-14.138-13.027 1.42-30.85-9.147-57.164-7.905" fill="#C1312B"/>
        <path d="M46.747 42.816a5.436 5.436 0 1 1-10.872 0 5.436 5.436 0 0 1 10.872 0M33.447 44.77a1.955 1.955 0 1 1-3.91 0 1.955 1.955 0 0 1 3.91 0" fill="#FEFEFE"/>
        <path d="M19.103 73.525a4.349 4.349 0 1 1-8.698 0 4.349 4.349 0 0 1 8.698 0M76.674 73.525a4.349 4.349 0 1 1-8.697 0 4.349 4.349 0 0 1 8.697 0M21.058 88.264h42.743s-6.523 6.523-19.154 6.523c-17.11 0-23.589-6.523-23.589-6.523" fill="#231F20"/>
        <g>
            <g transform="translate(.882 33.291)">
                <mask id="kjiijngxpb" fill="#fff">
                    <use xlink:href="#0s36j0070a"/>
                </mask>
                <path d="M141.926 9.524s9.906 8.457-.05 21.02c-14.07 17.755-22.42 18.846-33.292 33.343-5.511 7.348-10.374 16.162-23.51 22.343-8.214 3.866-17.323 2.785-17.323 2.785s-.156 23.017-3.122 24.712c-7.784 4.449-14.999-1.034-14.999-1.034l.967 12.322 45.423 7.49 10.63-29.96 51.222-85.047-15.946-7.974z" fill="#98241F" mask="url(#kjiijngxpb)"/>
            </g>
            <g transform="translate(.882 33.291)">
                <mask id="r18th4vv4d" fill="#fff">
                    <use xlink:href="#324tachxbc"/>
                </mask>
                <path d="M71.375-.534s26.577 8.125 34.309 34.461c0 0-3.383-22.47-13.289-28.51-9.906-6.04-21.02-5.951-21.02-5.951" fill="#98241F" mask="url(#r18th4vv4d)"/>
            </g>
            <g transform="translate(.882 33.291)">
                <mask id="fhdcy38jsf" fill="#fff">
                    <use xlink:href="#pk9h908kse"/>
                </mask>
                <path d="M0 62.92s15.344 26.96 48.07 27.685l1.233 9.126-22.604 4.022L-3.525 67.51 0 62.921z" fill="#98241F" mask="url(#fhdcy38jsf)"/>
            </g>
        </g>
        <g>
            <g transform="translate(9.827)">
                <mask id="1q5rziucdh" fill="#fff">
                    <use xlink:href="#rbxrgwxbug"/>
                </mask>
                <path d="M15.083 21.976 12.242 0H0l5.477 38.336s17.879-8.376 22.872-9.182l-.877-9.986-12.39 2.808z" fill="#231F20" mask="url(#1q5rziucdh)"/>
            </g>
            <path fill="#231F20" d="m37.299 0 2.427 28.671L51.01 26.4 50.206 0zM72.384 0l-4.993 12.08L62.88 0S51.123.322 50.639 0l11.92 25.45H71.9L85.431 0H72.385zM105.612 18.313l1.445-8.24-13.56-.49.204-1.886 13.713.338L108.824 0H86.025l-2.739 26.33s11.7 1.047 20.45 2.676l1.453-8.284-12.788-1.053.251-2.313 12.96.957zM126.777 11.436c-1.901 0-4.763.022-6.508.036l1.113-4.306c1.646.03 3.764.083 5.908.176 2.467.108 2.185 4.094-.513 4.094M129.516 0h-17.558L106.2 29.678l8.819 2.113 3.05-11.808c.779.004 1.707.005 2.8-.002.623 4.53 1.94 13.724 2.365 13.724.563 0 11.436 3.745 11.436 3.745l-4.158-18.054c4.884-1.125 6.574-4.129 7.701-9.893C139.663 2.093 134.47 0 129.516 0M44.99 149.508c-.108.812-.82 3.704-2.874 3.522-1.711-.152-2.4-2.313-2.11-4.765.278-2.342 1.529-3.471 2.818-3.35 2.373.223 2.353 3.183 2.166 4.593m-2.312-13.465c-3.507-.27-8.09 2.921-9.15 10.702-1.06 7.78 2.042 14.543 8.299 15.151 6.257.609 8.744-7.154 9.008-9.745.265-2.592 2.11-15.319-8.157-16.108M22.34 128.807l-9.327-3.998-5.316 36.121h25.007v-9.544l-13.146-.512zM84.431 150.888l-3.647-14.753-7.56 1.238 7.49 23.557h8.698l4.47-28.175-8.295 2.598zM106.317 152.301l-.306-2.668 9.026-1.09-1.245-10.565-8.874 2.134-.252-2.204-.032-.797 8.76-2.516-1.515-12.857c-1.616 1.36-8.424 6.407-16.426 10.303l2.416 28.89h18.627l-1.103-9.366-9.076.736zM124.13 131.194l-.633-4.26c2.118-2.46 6.185-6.52 5.604-.675-.19 1.898-3.257 3.937-4.97 4.935zm9.86 29.736h10.6l-8.26-25.417c1.832-3.715 2.898-8.655 2.13-15.173-2.496-21.15-15.597-7.596-18.227-5.18-5.244 4.817-6.418 5.542-6.418 5.542l5.074 40.228h9.664l-2.33-15.666c.55-.25 1.197-.575 1.912-.995l5.854 16.661z"/>
            <path d="M72.46 158.875c0 1.782-4.774 3.227-10.664 3.227s-10.666-1.445-10.666-3.227c0-1.782 4.775-3.227 10.666-3.227 5.89 0 10.664 1.445 10.664 3.227" fill="#98241F"/>
            <path d="m104.146 45.655 1.41 1.955s18.356-4.031 27.834-1.43c0 0-10.51-4.05-29.244-.525" fill="#FEFEFE"/>
        </g>
    </g>
</svg>
